<svg xmlns="http://www.w3.org/2000/svg" xmlns:xlink="http://www.w3.org/1999/xlink" width="500" zoomAndPan="magnify" viewBox="0 0 375 95.999999" height="128" preserveAspectRatio="xMidYMid meet" version="1.0"><defs><g/><clipPath id="c70360dbfa"><path d="M 93 2.105469 L 108 2.105469 L 108 18 L 93 18 Z M 93 2.105469 " clip-rule="nonzero"/></clipPath><clipPath id="890acecdb6"><path d="M 79 75 L 147 75 L 147 93.964844 L 79 93.964844 Z M 79 75 " clip-rule="nonzero"/></clipPath><clipPath id="3aa586f0a9"><path d="M 146 52 L 162.070312 52 L 162.070312 68 L 146 68 Z M 146 52 " clip-rule="nonzero"/></clipPath></defs><path fill="#619a7b" d="M 73.238281 67.757812 C 73.238281 67.757812 73.117188 67.492188 72.878906 66.992188 C 72.640625 66.492188 72.324219 65.757812 71.941406 64.78125 C 70.890625 62.101562 70.125 59.34375 69.636719 56.511719 C 69.304688 54.613281 69.105469 52.699219 69.039062 50.773438 C 68.980469 48.621094 69.074219 46.472656 69.308594 44.332031 C 69.375 43.769531 69.425781 43.199219 69.5 42.632812 C 69.578125 42.070312 69.71875 41.507812 69.828125 40.9375 C 69.9375 40.363281 70.050781 39.796875 70.164062 39.21875 C 70.273438 38.640625 70.480469 38.089844 70.636719 37.519531 C 70.792969 36.953125 70.964844 36.378906 71.125 35.824219 C 71.285156 35.265625 71.550781 34.699219 71.742188 34.125 L 72.386719 32.429688 C 72.59375 31.859375 72.894531 31.339844 73.144531 30.785156 L 73.929688 29.152344 C 74.179688 28.601562 74.527344 28.105469 74.820312 27.574219 C 75.40625 26.523438 76.046875 25.511719 76.75 24.535156 C 77.402344 23.550781 78.109375 22.601562 78.871094 21.695312 C 79.597656 20.78125 80.371094 19.910156 81.195312 19.078125 C 82.726562 17.5 84.359375 16.035156 86.097656 14.6875 L 88.585938 12.894531 C 89.4375 12.363281 90.25 11.886719 91.039062 11.40625 C 91.796875 10.949219 92.574219 10.535156 93.375 10.167969 C 94.128906 9.8125 94.832031 9.429688 95.53125 9.140625 C 96.929688 8.609375 98.140625 8.09375 99.167969 7.765625 L 102.429688 6.816406 L 103.277344 10.714844 L 100.269531 11.441406 C 99.316406 11.6875 98.195312 12.105469 96.875 12.519531 C 96.222656 12.746094 95.5625 13.066406 94.847656 13.367188 C 94.089844 13.664062 93.351562 14.007812 92.636719 14.394531 C 91.890625 14.796875 91.089844 15.195312 90.292969 15.667969 L 87.898438 17.203125 C 86.210938 18.378906 84.613281 19.671875 83.109375 21.078125 C 82.300781 21.808594 81.535156 22.585938 80.8125 23.402344 C 80.046875 24.210938 79.328125 25.058594 78.65625 25.949219 C 77.941406 26.832031 77.28125 27.75 76.675781 28.710938 C 76.371094 29.195312 76.015625 29.652344 75.75 30.164062 L 74.902344 31.675781 C 74.640625 32.191406 74.320312 32.679688 74.097656 33.210938 L 73.421875 34.78125 C 73.199219 35.308594 72.933594 35.824219 72.746094 36.367188 L 72.1875 37.996094 C 72.007812 38.535156 71.804688 39.070312 71.648438 39.613281 C 71.492188 40.15625 71.371094 40.707031 71.222656 41.246094 C 71.074219 41.785156 70.953125 42.332031 70.800781 42.867188 C 70.644531 43.402344 70.625 43.949219 70.535156 44.484375 C 70.191406 46.5625 69.992188 48.65625 69.933594 50.761719 C 69.910156 52.65625 70.015625 54.542969 70.25 56.421875 C 70.589844 59.25 71.207031 62.019531 72.101562 64.726562 C 72.429688 65.703125 72.71875 66.460938 72.921875 66.972656 Z M 73.238281 67.757812 " fill-opacity="1" fill-rule="nonzero"/><g clip-path="url(#c70360dbfa)"><path fill="#619a7b" d="M 95.734375 17.34375 L 101.628906 9.027344 L 93.308594 3.132812 L 99.34375 2.105469 L 107.65625 8 L 101.761719 16.3125 Z M 95.734375 17.34375 " fill-opacity="1" fill-rule="nonzero"/></g><g clip-path="url(#890acecdb6)"><path fill="#619a7b" d="M 146.511719 75.117188 L 146.007812 75.808594 C 145.675781 76.234375 145.242188 76.9375 144.566406 77.726562 L 143.476562 79.054688 L 142.105469 80.550781 C 140.984375 81.722656 139.800781 82.828125 138.554688 83.871094 C 137.882812 84.464844 137.117188 84.996094 136.359375 85.59375 C 135.605469 86.191406 134.746094 86.714844 133.886719 87.292969 C 133.023438 87.867188 132.113281 88.390625 131.140625 88.867188 L 129.683594 89.621094 L 128.15625 90.300781 C 127.144531 90.789062 126.035156 91.128906 124.964844 91.574219 C 123.855469 91.894531 122.746094 92.3125 121.570312 92.5625 C 119.238281 93.15625 116.871094 93.550781 114.472656 93.753906 L 112.660156 93.855469 L 112.207031 93.882812 L 110.859375 93.882812 C 109.703125 93.90625 108.46875 93.8125 107.257812 93.75 C 104.917969 93.539062 102.601562 93.15625 100.316406 92.609375 C 98.179688 92.0625 96.085938 91.371094 94.042969 90.535156 C 92.214844 89.765625 90.445312 88.878906 88.734375 87.875 C 87.28125 87.027344 85.882812 86.097656 84.539062 85.085938 C 83.34375 84.175781 82.324219 83.34375 81.535156 82.613281 C 80.746094 81.878906 80.121094 81.292969 79.710938 80.882812 L 79.082031 80.257812 L 82.050781 77.570312 L 82.597656 78.167969 C 82.953125 78.558594 83.445312 79.148438 84.175781 79.832031 C 84.902344 80.515625 85.753906 81.347656 86.804688 82.242188 C 87.992188 83.238281 89.230469 84.160156 90.527344 85.007812 C 92.0625 86.023438 93.65625 86.929688 95.3125 87.734375 C 97.171875 88.601562 99.082031 89.339844 101.042969 89.945312 C 103.164062 90.574219 105.320312 91.046875 107.511719 91.363281 C 108.625 91.476562 109.722656 91.632812 110.90625 91.667969 L 111.789062 91.714844 L 114.363281 91.714844 C 116.671875 91.644531 118.964844 91.386719 121.230469 90.941406 C 122.367188 90.761719 123.449219 90.417969 124.539062 90.164062 C 125.597656 89.804688 126.679688 89.535156 127.691406 89.113281 L 129.207031 88.53125 L 130.660156 87.867188 C 131.632812 87.445312 132.519531 86.929688 133.414062 86.476562 C 134.308594 86.023438 135.113281 85.46875 135.921875 84.960938 C 136.734375 84.457031 137.480469 83.929688 138.167969 83.382812 C 139.453125 82.417969 140.679688 81.386719 141.851562 80.285156 L 143.285156 78.882812 L 144.433594 77.609375 C 145.148438 76.863281 145.621094 76.191406 145.980469 75.769531 Z M 146.511719 75.117188 " fill-opacity="1" fill-rule="nonzero"/></g><path fill="#619a7b" d="M 91.511719 80.875 L 81.371094 79.851562 L 80.355469 90 L 76.480469 85.257812 L 77.5 75.121094 L 87.636719 76.136719 Z M 91.511719 80.875 " fill-opacity="1" fill-rule="nonzero"/><path fill="#619a7b" d="M 116.253906 7.992188 L 119.484375 8.375 C 119.738281 8.410156 120.011719 8.4375 120.292969 8.480469 L 121.171875 8.667969 L 123.15625 9.09375 C 123.507812 9.175781 123.875 9.238281 124.25 9.34375 L 125.378906 9.699219 L 127.824219 10.476562 L 130.394531 11.558594 C 130.816406 11.753906 131.300781 11.910156 131.734375 12.152344 L 133.074219 12.871094 C 134.988281 13.875 136.816406 15.019531 138.558594 16.300781 L 141.238281 18.421875 L 143.785156 20.847656 C 144.636719 21.695312 145.367188 22.625 146.171875 23.523438 C 146.574219 23.972656 146.941406 24.445312 147.28125 24.941406 L 148.886719 27.144531 C 149.054688 27.394531 149.199219 27.664062 149.359375 27.917969 L 150.292969 29.476562 C 150.914062 30.503906 151.46875 31.570312 151.957031 32.671875 C 152.214844 33.214844 152.484375 33.742188 152.726562 34.289062 C 152.96875 34.832031 153.152344 35.398438 153.34375 35.945312 C 153.78125 37.023438 154.144531 38.125 154.4375 39.246094 C 154.585938 39.804688 154.734375 40.351562 154.863281 40.894531 C 155.023438 41.429688 155.148438 41.96875 155.238281 42.519531 C 155.425781 43.613281 155.605469 44.675781 155.777344 45.710938 C 155.917969 46.753906 155.949219 47.78125 156.03125 48.769531 C 156.070312 49.261719 156.105469 49.75 156.140625 50.230469 C 156.171875 50.710938 156.160156 51.140625 156.140625 51.628906 C 156.125 54.621094 155.808594 57.578125 155.195312 60.507812 C 154.976562 61.5625 154.773438 62.386719 154.609375 62.953125 C 154.449219 63.515625 154.375 63.800781 154.375 63.800781 L 150.554688 62.582031 L 150.8125 61.820312 C 150.972656 61.3125 151.210938 60.574219 151.464844 59.621094 C 152.160156 56.96875 152.585938 54.269531 152.738281 51.53125 C 152.765625 51.136719 152.78125 50.648438 152.792969 50.222656 C 152.808594 49.792969 152.792969 49.324219 152.765625 48.867188 C 152.734375 47.949219 152.765625 46.992188 152.679688 46.015625 C 152.59375 45.039062 152.453125 44.042969 152.335938 43.019531 C 152.28125 42.5 152.1875 41.988281 152.0625 41.484375 C 151.953125 40.96875 151.84375 40.449219 151.730469 39.925781 C 151.519531 38.855469 151.234375 37.804688 150.882812 36.773438 L 150.441406 35.203125 C 150.234375 34.683594 150.015625 34.167969 149.792969 33.640625 C 149.394531 32.578125 148.925781 31.542969 148.390625 30.535156 L 147.582031 29.007812 C 147.445312 28.757812 147.320312 28.496094 147.160156 28.25 L 146.691406 27.53125 L 145.746094 26.082031 C 145.445312 25.585938 145.117188 25.113281 144.753906 24.664062 C 144.03125 23.769531 143.351562 22.835938 142.601562 21.976562 L 140.265625 19.503906 L 137.78125 17.304688 C 136.15625 15.96875 134.4375 14.761719 132.625 13.683594 L 131.351562 12.914062 C 130.929688 12.652344 130.503906 12.488281 130.078125 12.257812 L 127.597656 11.066406 L 125.226562 10.167969 L 124.125 9.742188 C 123.765625 9.621094 123.40625 9.539062 123.0625 9.441406 L 121.125 8.910156 L 120.277344 8.675781 C 119.996094 8.617188 119.730469 8.578125 119.476562 8.53125 Z M 116.253906 7.992188 " fill-opacity="1" fill-rule="nonzero"/><g clip-path="url(#3aa586f0a9)"><path fill="#619a7b" d="M 148.675781 52.753906 L 152.90625 62.03125 L 162.179688 57.796875 L 160.039062 63.527344 L 150.765625 67.757812 L 146.535156 58.488281 Z M 148.675781 52.753906 " fill-opacity="1" fill-rule="nonzero"/></g><g fill="#ffffff" fill-opacity="1"><g transform="translate(84.534646, 65.314316)"><g><path d="M 9.441406 0 C 10.03125 0 10.328125 -0.296875 10.328125 -0.910156 L 10.328125 -11.691406 L 17.242188 -11.691406 L 22.660156 -0.796875 C 22.953125 -0.183594 23.203125 0 23.726562 0 L 29.597656 0 C 30.027344 0 30.257812 -0.296875 30.257812 -0.660156 C 30.257812 -0.773438 30.234375 -0.863281 30.1875 -0.976562 L 23.976562 -13.261719 C 27.300781 -15.21875 29.734375 -18.746094 29.734375 -22.679688 C 29.734375 -28.617188 25.070312 -33.761719 19.019531 -33.761719 L 4.574219 -33.761719 C 4.003906 -33.761719 3.683594 -33.394531 3.683594 -32.871094 L 3.683594 -0.910156 C 3.683594 -0.296875 3.980469 0 4.574219 0 Z M 10.328125 -17.722656 L 10.328125 -27.890625 L 17.425781 -27.890625 C 20.382812 -27.890625 22.929688 -25.867188 22.929688 -22.792969 C 22.929688 -19.699219 20.382812 -17.722656 17.425781 -17.722656 Z M 10.328125 -17.722656 "/></g></g></g><g fill="#ffffff" fill-opacity="1"><g transform="translate(114.28809, 65.314316)"><g><path d="M 19.679688 0 C 20.335938 0 20.746094 -0.433594 20.746094 -1.046875 L 20.746094 -4.277344 C 20.746094 -4.980469 20.316406 -5.414062 19.679688 -5.414062 L 9.738281 -5.414062 L 9.738281 -8.714844 L 17.199219 -8.714844 C 17.835938 -8.714844 18.246094 -9.144531 18.246094 -9.78125 L 18.246094 -12.535156 C 18.246094 -13.238281 17.835938 -13.648438 17.199219 -13.648438 L 9.738281 -13.648438 L 9.738281 -17.039062 L 19.175781 -17.039062 C 19.816406 -17.039062 20.246094 -17.425781 20.246094 -18.132812 L 20.246094 -21.246094 C 20.246094 -21.886719 19.816406 -22.316406 19.175781 -22.316406 L 4.664062 -22.316406 C 3.957031 -22.316406 3.617188 -21.953125 3.617188 -21.246094 L 3.617188 -1.046875 C 3.617188 -0.410156 3.9375 -0.0234375 4.503906 0 Z M 19.679688 0 "/></g></g></g><g fill="#ffffff" fill-opacity="1"><g transform="translate(136.039504, 65.314316)"><g/></g></g><g fill="#ffffff" fill-opacity="1"><g transform="translate(149.505823, 65.314316)"><g/></g></g><g fill="#ffffff" fill-opacity="1"><g transform="translate(162.976007, 65.314316)"><g><path d="M 18.972656 0.0234375 C 19.496094 0.0234375 19.882812 -0.25 20.132812 -0.820312 L 32.691406 -32.757812 C 32.757812 -32.894531 32.78125 -33.03125 32.78125 -33.191406 C 32.78125 -33.578125 32.507812 -33.78125 32.078125 -33.78125 L 26.820312 -33.78125 C 26.277344 -33.78125 25.910156 -33.488281 25.707031 -32.894531 L 17.039062 -9.328125 L 8.328125 -32.917969 C 8.121094 -33.488281 7.734375 -33.78125 7.210938 -33.78125 L 2.023438 -33.78125 C 1.570312 -33.78125 1.320312 -33.601562 1.320312 -33.238281 C 1.320312 -33.078125 1.34375 -32.941406 1.410156 -32.804688 L 13.992188 -0.820312 C 14.195312 -0.25 14.582031 0.0234375 15.152344 0.0234375 Z M 18.972656 0.0234375 "/></g></g></g><g fill="#ffffff" fill-opacity="1"><g transform="translate(194.867707, 65.314316)"><g><path d="M 19.679688 0 C 20.335938 0 20.746094 -0.433594 20.746094 -1.046875 L 20.746094 -4.277344 C 20.746094 -4.980469 20.316406 -5.414062 19.679688 -5.414062 L 9.738281 -5.414062 L 9.738281 -8.714844 L 17.199219 -8.714844 C 17.835938 -8.714844 18.246094 -9.144531 18.246094 -9.78125 L 18.246094 -12.535156 C 18.246094 -13.238281 17.835938 -13.648438 17.199219 -13.648438 L 9.738281 -13.648438 L 9.738281 -17.039062 L 19.175781 -17.039062 C 19.816406 -17.039062 20.246094 -17.425781 20.246094 -18.132812 L 20.246094 -21.246094 C 20.246094 -21.886719 19.816406 -22.316406 19.175781 -22.316406 L 4.664062 -22.316406 C 3.957031 -22.316406 3.617188 -21.953125 3.617188 -21.246094 L 3.617188 -1.046875 C 3.617188 -0.410156 3.9375 -0.0234375 4.503906 0 Z M 19.679688 0 "/></g></g></g><g fill="#ffffff" fill-opacity="1"><g transform="translate(216.614077, 65.314316)"><g><path d="M 8.757812 0 C 9.488281 0 9.851562 -0.339844 9.851562 -1.046875 L 9.851562 -12.898438 L 18.882812 -0.523438 C 19.15625 -0.183594 19.449219 0 19.746094 0 L 24.660156 0 C 25.410156 0 25.796875 -0.339844 25.796875 -1.046875 L 25.796875 -21.246094 C 25.796875 -21.886719 25.230469 -22.316406 24.660156 -22.316406 L 20.609375 -22.316406 C 20.019531 -22.316406 19.679688 -22.019531 19.585938 -21.40625 L 19.585938 -9.691406 L 10.78125 -21.792969 C 10.53125 -22.136719 10.191406 -22.316406 9.78125 -22.316406 L 4.6875 -22.316406 C 4.050781 -22.316406 3.640625 -21.839844 3.640625 -21.203125 L 3.640625 -1.046875 C 3.640625 -0.339844 3.980469 0 4.6875 0 Z M 8.757812 0 "/></g></g></g><g fill="#ffffff" fill-opacity="1"><g transform="translate(245.048173, 65.314316)"><g><path d="M 13.171875 0 C 19.335938 0 23.75 -5.253906 23.75 -11.214844 C 23.75 -17.359375 19.246094 -22.226562 13.035156 -22.363281 L 4.664062 -22.363281 C 3.957031 -22.363281 3.59375 -22 3.59375 -21.292969 L 3.59375 -1.046875 C 3.59375 -0.410156 3.890625 -0.0234375 4.503906 0 Z M 9.78125 -5.277344 L 9.78125 -17.175781 L 12.035156 -17.175781 C 15.425781 -17.175781 17.746094 -14.628906 17.746094 -11.285156 C 17.746094 -7.941406 15.695312 -5.277344 12.195312 -5.277344 Z M 9.78125 -5.277344 "/></g></g></g><g fill="#ffffff" fill-opacity="1"><g transform="translate(268.341358, 65.314316)"><g><path d="M 19.679688 0 C 20.335938 0 20.746094 -0.433594 20.746094 -1.046875 L 20.746094 -4.277344 C 20.746094 -4.980469 20.316406 -5.414062 19.679688 -5.414062 L 9.738281 -5.414062 L 9.738281 -8.714844 L 17.199219 -8.714844 C 17.835938 -8.714844 18.246094 -9.144531 18.246094 -9.78125 L 18.246094 -12.535156 C 18.246094 -13.238281 17.835938 -13.648438 17.199219 -13.648438 L 9.738281 -13.648438 L 9.738281 -17.039062 L 19.175781 -17.039062 C 19.816406 -17.039062 20.246094 -17.425781 20.246094 -18.132812 L 20.246094 -21.246094 C 20.246094 -21.886719 19.816406 -22.316406 19.175781 -22.316406 L 4.664062 -22.316406 C 3.957031 -22.316406 3.617188 -21.953125 3.617188 -21.246094 L 3.617188 -1.046875 C 3.617188 -0.410156 3.9375 -0.0234375 4.503906 0 Z M 19.679688 0 "/></g></g></g></svg>