<svg xmlns="http://www.w3.org/2000/svg" xmlns:xlink="http://www.w3.org/1999/xlink" width="500" zoomAndPan="magnify" viewBox="0 0 375 95.999999" height="128" preserveAspectRatio="xMidYMid meet" version="1.0"><defs><g/><clipPath id="7fad803aee"><path d="M 2.613281 6 L 38 6 L 38 68 L 2.613281 68 Z M 2.613281 6 " clip-rule="nonzero"/></clipPath><clipPath id="5c2ba633bf"><path d="M 27 2.105469 L 42 2.105469 L 42 18 L 27 18 Z M 27 2.105469 " clip-rule="nonzero"/></clipPath><clipPath id="407a5af26a"><path d="M 12 75 L 81 75 L 81 93.964844 L 12 93.964844 Z M 12 75 " clip-rule="nonzero"/></clipPath><clipPath id="439026f6e7"><path d="M 80 52 L 95.84375 52 L 95.84375 68 L 80 68 Z M 80 52 " clip-rule="nonzero"/></clipPath></defs><g clip-path="url(#7fad803aee)"><path fill="#619a7b" d="M 7.015625 67.757812 C 7.015625 67.757812 6.890625 67.492188 6.652344 66.992188 C 6.414062 66.492188 6.097656 65.757812 5.714844 64.78125 C 4.667969 62.101562 3.898438 59.34375 3.410156 56.511719 C 3.078125 54.613281 2.878906 52.699219 2.8125 50.773438 C 2.757812 48.621094 2.847656 46.472656 3.085938 44.332031 C 3.148438 43.769531 3.199219 43.199219 3.273438 42.632812 C 3.351562 42.070312 3.492188 41.507812 3.601562 40.9375 C 3.710938 40.363281 3.828125 39.796875 3.9375 39.21875 C 4.046875 38.640625 4.253906 38.089844 4.414062 37.519531 C 4.570312 36.953125 4.738281 36.378906 4.902344 35.824219 C 5.0625 35.265625 5.324219 34.699219 5.515625 34.125 L 6.160156 32.429688 C 6.367188 31.859375 6.671875 31.339844 6.921875 30.785156 L 7.707031 29.152344 C 7.957031 28.601562 8.304688 28.105469 8.597656 27.574219 C 9.179688 26.523438 9.820312 25.511719 10.523438 24.535156 C 11.175781 23.550781 11.882812 22.601562 12.644531 21.695312 C 13.371094 20.78125 14.148438 19.910156 14.96875 19.078125 C 16.5 17.5 18.132812 16.035156 19.871094 14.6875 L 22.363281 12.894531 C 23.210938 12.363281 24.027344 11.886719 24.816406 11.40625 C 25.570312 10.949219 26.347656 10.535156 27.148438 10.167969 C 27.902344 9.8125 28.609375 9.429688 29.304688 9.140625 C 30.703125 8.609375 31.914062 8.09375 32.941406 7.765625 L 36.203125 6.816406 L 37.054688 10.714844 L 34.042969 11.441406 C 33.089844 11.6875 31.96875 12.105469 30.648438 12.519531 C 29.996094 12.746094 29.339844 13.066406 28.621094 13.367188 C 27.863281 13.664062 27.128906 14.007812 26.410156 14.394531 C 25.664062 14.796875 24.867188 15.195312 24.066406 15.667969 L 21.675781 17.203125 C 19.984375 18.378906 18.386719 19.671875 16.882812 21.078125 C 16.074219 21.808594 15.308594 22.585938 14.589844 23.402344 C 13.820312 24.210938 13.101562 25.058594 12.433594 25.949219 C 11.71875 26.832031 11.058594 27.75 10.449219 28.710938 C 10.144531 29.195312 9.789062 29.652344 9.527344 30.164062 L 8.675781 31.675781 C 8.414062 32.191406 8.097656 32.679688 7.871094 33.210938 L 7.195312 34.78125 C 6.976562 35.308594 6.707031 35.824219 6.523438 36.367188 L 5.960938 37.996094 C 5.785156 38.535156 5.578125 39.070312 5.421875 39.613281 C 5.265625 40.15625 5.148438 40.707031 5 41.246094 C 4.851562 41.785156 4.726562 42.332031 4.574219 42.867188 C 4.421875 43.402344 4.398438 43.949219 4.3125 44.484375 C 3.96875 46.5625 3.765625 48.65625 3.707031 50.761719 C 3.683594 52.65625 3.789062 54.542969 4.027344 56.421875 C 4.363281 59.25 4.980469 62.019531 5.875 64.726562 C 6.203125 65.703125 6.492188 66.460938 6.695312 66.972656 Z M 7.015625 67.757812 " fill-opacity="1" fill-rule="nonzero"/></g><g clip-path="url(#5c2ba633bf)"><path fill="#619a7b" d="M 29.507812 17.34375 L 35.402344 9.027344 L 27.085938 3.132812 L 33.121094 2.105469 L 41.433594 8 L 35.539062 16.3125 Z M 29.507812 17.34375 " fill-opacity="1" fill-rule="nonzero"/></g><g clip-path="url(#407a5af26a)"><path fill="#619a7b" d="M 80.285156 75.117188 L 79.785156 75.808594 C 79.449219 76.234375 79.015625 76.9375 78.339844 77.726562 L 77.25 79.054688 L 75.878906 80.550781 C 74.757812 81.722656 73.574219 82.828125 72.328125 83.871094 C 71.660156 84.464844 70.890625 84.996094 70.136719 85.59375 C 69.378906 86.191406 68.523438 86.714844 67.660156 87.292969 C 66.800781 87.867188 65.886719 88.390625 64.914062 88.867188 L 63.460938 89.621094 L 61.933594 90.300781 C 60.917969 90.789062 59.8125 91.128906 58.742188 91.574219 C 57.628906 91.894531 56.523438 92.3125 55.347656 92.5625 C 53.011719 93.15625 50.644531 93.550781 48.246094 93.753906 L 46.433594 93.855469 L 45.980469 93.882812 L 44.636719 93.882812 C 43.476562 93.90625 42.242188 93.8125 41.035156 93.75 C 38.691406 93.539062 36.378906 93.15625 34.089844 92.609375 C 31.953125 92.0625 29.863281 91.371094 27.820312 90.535156 C 25.992188 89.765625 24.222656 88.878906 22.511719 87.875 C 21.058594 87.027344 19.660156 86.097656 18.3125 85.085938 C 17.117188 84.175781 16.097656 83.34375 15.308594 82.613281 C 14.519531 81.878906 13.898438 81.292969 13.484375 80.882812 L 12.855469 80.257812 L 15.828125 77.570312 L 16.371094 78.167969 C 16.726562 78.558594 17.21875 79.148438 17.949219 79.832031 C 18.679688 80.515625 19.527344 81.347656 20.582031 82.242188 C 21.765625 83.238281 23.007812 84.160156 24.300781 85.007812 C 25.835938 86.023438 27.433594 86.929688 29.089844 87.734375 C 30.945312 88.601562 32.855469 89.339844 34.816406 89.945312 C 36.941406 90.574219 39.097656 91.046875 41.289062 91.363281 C 42.398438 91.476562 43.5 91.632812 44.683594 91.667969 L 45.566406 91.714844 L 48.136719 91.714844 C 50.449219 91.644531 52.738281 91.386719 55.007812 90.941406 C 56.140625 90.761719 57.222656 90.417969 58.3125 90.164062 C 59.375 89.804688 60.457031 89.535156 61.464844 89.113281 L 62.980469 88.53125 L 64.4375 87.867188 C 65.40625 87.445312 66.292969 86.929688 67.191406 86.476562 C 68.085938 86.023438 68.886719 85.46875 69.699219 84.960938 C 70.507812 84.457031 71.253906 83.929688 71.941406 83.382812 C 73.226562 82.417969 74.453125 81.386719 75.625 80.285156 L 77.058594 78.882812 L 78.210938 77.609375 C 78.921875 76.863281 79.394531 76.191406 79.753906 75.769531 Z M 80.285156 75.117188 " fill-opacity="1" fill-rule="nonzero"/></g><path fill="#619a7b" d="M 25.285156 80.875 L 15.144531 79.851562 L 14.128906 90 L 10.253906 85.257812 L 11.273438 75.121094 L 21.410156 76.136719 Z M 25.285156 80.875 " fill-opacity="1" fill-rule="nonzero"/><path fill="#619a7b" d="M 50.03125 7.992188 L 53.257812 8.375 C 53.511719 8.410156 53.785156 8.4375 54.070312 8.480469 L 54.949219 8.667969 L 56.929688 9.09375 C 57.28125 9.175781 57.652344 9.238281 58.023438 9.34375 L 59.152344 9.699219 L 61.597656 10.476562 L 64.167969 11.558594 C 64.59375 11.753906 65.078125 11.910156 65.507812 12.152344 L 66.851562 12.871094 C 68.761719 13.875 70.589844 15.019531 72.332031 16.300781 L 75.015625 18.421875 L 77.5625 20.847656 C 78.410156 21.695312 79.144531 22.625 79.945312 23.523438 C 80.347656 23.972656 80.71875 24.445312 81.058594 24.941406 L 82.125 26.410156 L 82.660156 27.144531 C 82.832031 27.394531 82.976562 27.664062 83.132812 27.917969 L 84.066406 29.476562 C 84.6875 30.503906 85.246094 31.570312 85.734375 32.671875 C 85.988281 33.214844 86.261719 33.742188 86.5 34.289062 C 86.742188 34.832031 86.925781 35.398438 87.117188 35.945312 C 87.554688 37.023438 87.917969 38.125 88.210938 39.246094 C 88.359375 39.804688 88.507812 40.351562 88.636719 40.894531 C 88.796875 41.429688 88.921875 41.96875 89.015625 42.519531 C 89.199219 43.613281 89.378906 44.675781 89.554688 45.710938 C 89.691406 46.753906 89.722656 47.78125 89.808594 48.769531 C 89.84375 49.261719 89.878906 49.75 89.914062 50.230469 C 89.949219 50.710938 89.933594 51.140625 89.914062 51.628906 C 89.898438 54.621094 89.585938 57.578125 88.972656 60.507812 C 88.75 61.5625 88.546875 62.386719 88.386719 62.953125 C 88.226562 63.515625 88.148438 63.800781 88.148438 63.800781 L 84.328125 62.582031 L 84.589844 61.820312 C 84.75 61.3125 84.988281 60.574219 85.242188 59.621094 C 85.9375 56.96875 86.359375 54.269531 86.515625 51.53125 C 86.539062 51.136719 86.558594 50.648438 86.570312 50.222656 C 86.582031 49.792969 86.570312 49.324219 86.539062 48.867188 C 86.511719 47.949219 86.539062 46.992188 86.457031 46.015625 C 86.371094 45.039062 86.226562 44.042969 86.113281 43.019531 C 86.054688 42.5 85.964844 41.988281 85.835938 41.484375 C 85.730469 40.96875 85.621094 40.449219 85.503906 39.925781 C 85.292969 38.855469 85.011719 37.804688 84.65625 36.773438 L 84.214844 35.203125 C 84.011719 34.683594 83.789062 34.167969 83.570312 33.640625 C 83.167969 32.578125 82.699219 31.542969 82.164062 30.535156 L 81.359375 29.007812 C 81.21875 28.757812 81.097656 28.496094 80.933594 28.25 L 80.46875 27.53125 L 79.519531 26.082031 C 79.222656 25.585938 78.890625 25.113281 78.527344 24.664062 C 77.808594 23.769531 77.128906 22.835938 76.378906 21.976562 L 74.039062 19.503906 L 71.554688 17.304688 C 69.929688 15.96875 68.210938 14.761719 66.402344 13.683594 L 65.128906 12.914062 C 64.703125 12.652344 64.277344 12.488281 63.855469 12.257812 L 61.371094 11.066406 L 59 10.167969 L 57.902344 9.742188 C 57.539062 9.621094 57.179688 9.539062 56.835938 9.441406 L 54.902344 8.910156 L 54.050781 8.675781 C 53.773438 8.617188 53.503906 8.578125 53.25 8.53125 Z M 50.03125 7.992188 " fill-opacity="1" fill-rule="nonzero"/><g clip-path="url(#439026f6e7)"><path fill="#619a7b" d="M 82.449219 52.753906 L 86.679688 62.03125 L 95.957031 57.796875 L 93.8125 63.527344 L 84.542969 67.757812 L 80.3125 58.488281 Z M 82.449219 52.753906 " fill-opacity="1" fill-rule="nonzero"/></g><g fill="#ffffff" fill-opacity="1"><g transform="translate(18.309476, 65.314316)"><g><path d="M 9.441406 0 C 10.03125 0 10.328125 -0.296875 10.328125 -0.910156 L 10.328125 -11.691406 L 17.242188 -11.691406 L 22.660156 -0.796875 C 22.953125 -0.183594 23.203125 0 23.726562 0 L 29.597656 0 C 30.027344 0 30.257812 -0.296875 30.257812 -0.660156 C 30.257812 -0.773438 30.234375 -0.863281 30.1875 -0.976562 L 23.976562 -13.261719 C 27.300781 -15.21875 29.734375 -18.746094 29.734375 -22.679688 C 29.734375 -28.617188 25.070312 -33.761719 19.019531 -33.761719 L 4.574219 -33.761719 C 4.003906 -33.761719 3.683594 -33.394531 3.683594 -32.871094 L 3.683594 -0.910156 C 3.683594 -0.296875 3.980469 0 4.574219 0 Z M 10.328125 -17.722656 L 10.328125 -27.890625 L 17.425781 -27.890625 C 20.382812 -27.890625 22.929688 -25.867188 22.929688 -22.792969 C 22.929688 -19.699219 20.382812 -17.722656 17.425781 -17.722656 Z M 10.328125 -17.722656 "/></g></g></g><g fill="#ffffff" fill-opacity="1"><g transform="translate(48.062921, 65.314316)"><g><path d="M 19.679688 0 C 20.335938 0 20.746094 -0.433594 20.746094 -1.046875 L 20.746094 -4.277344 C 20.746094 -4.980469 20.316406 -5.414062 19.679688 -5.414062 L 9.738281 -5.414062 L 9.738281 -8.714844 L 17.199219 -8.714844 C 17.835938 -8.714844 18.246094 -9.144531 18.246094 -9.78125 L 18.246094 -12.535156 C 18.246094 -13.238281 17.835938 -13.648438 17.199219 -13.648438 L 9.738281 -13.648438 L 9.738281 -17.039062 L 19.175781 -17.039062 C 19.816406 -17.039062 20.246094 -17.425781 20.246094 -18.132812 L 20.246094 -21.246094 C 20.246094 -21.886719 19.816406 -22.316406 19.175781 -22.316406 L 4.664062 -22.316406 C 3.957031 -22.316406 3.617188 -21.953125 3.617188 -21.246094 L 3.617188 -1.046875 C 3.617188 -0.410156 3.9375 -0.0234375 4.503906 0 Z M 19.679688 0 "/></g></g></g><g fill="#ffffff" fill-opacity="1"><g transform="translate(69.814334, 65.314316)"><g/></g></g><g fill="#ffffff" fill-opacity="1"><g transform="translate(83.280653, 65.314316)"><g/></g></g><g fill="#ffffff" fill-opacity="1"><g transform="translate(96.750837, 65.314316)"><g><path d="M 18.972656 0.0234375 C 19.496094 0.0234375 19.882812 -0.25 20.132812 -0.820312 L 32.691406 -32.757812 C 32.757812 -32.894531 32.78125 -33.03125 32.78125 -33.191406 C 32.78125 -33.578125 32.507812 -33.78125 32.078125 -33.78125 L 26.820312 -33.78125 C 26.277344 -33.78125 25.910156 -33.488281 25.707031 -32.894531 L 17.039062 -9.328125 L 8.328125 -32.917969 C 8.121094 -33.488281 7.734375 -33.78125 7.210938 -33.78125 L 2.023438 -33.78125 C 1.570312 -33.78125 1.320312 -33.601562 1.320312 -33.238281 C 1.320312 -33.078125 1.34375 -32.941406 1.410156 -32.804688 L 13.992188 -0.820312 C 14.195312 -0.25 14.582031 0.0234375 15.152344 0.0234375 Z M 18.972656 0.0234375 "/></g></g></g><g fill="#ffffff" fill-opacity="1"><g transform="translate(128.642538, 65.314316)"><g><path d="M 19.679688 0 C 20.335938 0 20.746094 -0.433594 20.746094 -1.046875 L 20.746094 -4.277344 C 20.746094 -4.980469 20.316406 -5.414062 19.679688 -5.414062 L 9.738281 -5.414062 L 9.738281 -8.714844 L 17.199219 -8.714844 C 17.835938 -8.714844 18.246094 -9.144531 18.246094 -9.78125 L 18.246094 -12.535156 C 18.246094 -13.238281 17.835938 -13.648438 17.199219 -13.648438 L 9.738281 -13.648438 L 9.738281 -17.039062 L 19.175781 -17.039062 C 19.816406 -17.039062 20.246094 -17.425781 20.246094 -18.132812 L 20.246094 -21.246094 C 20.246094 -21.886719 19.816406 -22.316406 19.175781 -22.316406 L 4.664062 -22.316406 C 3.957031 -22.316406 3.617188 -21.953125 3.617188 -21.246094 L 3.617188 -1.046875 C 3.617188 -0.410156 3.9375 -0.0234375 4.503906 0 Z M 19.679688 0 "/></g></g></g><g fill="#ffffff" fill-opacity="1"><g transform="translate(150.388907, 65.314316)"><g><path d="M 8.757812 0 C 9.488281 0 9.851562 -0.339844 9.851562 -1.046875 L 9.851562 -12.898438 L 18.882812 -0.523438 C 19.15625 -0.183594 19.449219 0 19.746094 0 L 24.660156 0 C 25.410156 0 25.796875 -0.339844 25.796875 -1.046875 L 25.796875 -21.246094 C 25.796875 -21.886719 25.230469 -22.316406 24.660156 -22.316406 L 20.609375 -22.316406 C 20.019531 -22.316406 19.679688 -22.019531 19.585938 -21.40625 L 19.585938 -9.691406 L 10.78125 -21.792969 C 10.53125 -22.136719 10.191406 -22.316406 9.78125 -22.316406 L 4.6875 -22.316406 C 4.050781 -22.316406 3.640625 -21.839844 3.640625 -21.203125 L 3.640625 -1.046875 C 3.640625 -0.339844 3.980469 0 4.6875 0 Z M 8.757812 0 "/></g></g></g><g fill="#ffffff" fill-opacity="1"><g transform="translate(178.823004, 65.314316)"><g><path d="M 13.171875 0 C 19.335938 0 23.75 -5.253906 23.75 -11.214844 C 23.75 -17.359375 19.246094 -22.226562 13.035156 -22.363281 L 4.664062 -22.363281 C 3.957031 -22.363281 3.59375 -22 3.59375 -21.292969 L 3.59375 -1.046875 C 3.59375 -0.410156 3.890625 -0.0234375 4.503906 0 Z M 9.78125 -5.277344 L 9.78125 -17.175781 L 12.035156 -17.175781 C 15.425781 -17.175781 17.746094 -14.628906 17.746094 -11.285156 C 17.746094 -7.941406 15.695312 -5.277344 12.195312 -5.277344 Z M 9.78125 -5.277344 "/></g></g></g><g fill="#ffffff" fill-opacity="1"><g transform="translate(202.116189, 65.314316)"><g><path d="M 19.679688 0 C 20.335938 0 20.746094 -0.433594 20.746094 -1.046875 L 20.746094 -4.277344 C 20.746094 -4.980469 20.316406 -5.414062 19.679688 -5.414062 L 9.738281 -5.414062 L 9.738281 -8.714844 L 17.199219 -8.714844 C 17.835938 -8.714844 18.246094 -9.144531 18.246094 -9.78125 L 18.246094 -12.535156 C 18.246094 -13.238281 17.835938 -13.648438 17.199219 -13.648438 L 9.738281 -13.648438 L 9.738281 -17.039062 L 19.175781 -17.039062 C 19.816406 -17.039062 20.246094 -17.425781 20.246094 -18.132812 L 20.246094 -21.246094 C 20.246094 -21.886719 19.816406 -22.316406 19.175781 -22.316406 L 4.664062 -22.316406 C 3.957031 -22.316406 3.617188 -21.953125 3.617188 -21.246094 L 3.617188 -1.046875 C 3.617188 -0.410156 3.9375 -0.0234375 4.503906 0 Z M 19.679688 0 "/></g></g></g></svg>