<svg xmlns="http://www.w3.org/2000/svg" xmlns:xlink="http://www.w3.org/1999/xlink" width="500" zoomAndPan="magnify" viewBox="0 0 375 95.999999" height="128" preserveAspectRatio="xMidYMid meet" version="1.0"><defs><g/><clipPath id="5398a96a69"><path d="M 88.503906 13 L 118 13 L 118 65 L 88.503906 65 Z M 88.503906 13 " clip-rule="nonzero"/></clipPath><clipPath id="ea006e940f"><path d="M 108 9.601562 L 121 9.601562 L 121 23 L 108 23 Z M 108 9.601562 " clip-rule="nonzero"/></clipPath><clipPath id="50a659a522"><path d="M 97 70 L 154 70 L 154 86.460938 L 97 86.460938 Z M 97 70 " clip-rule="nonzero"/></clipPath><clipPath id="b9f26d4fbd"><path d="M 153 51 L 166.511719 51 L 166.511719 65 L 153 65 Z M 153 51 " clip-rule="nonzero"/></clipPath></defs><rect x="-37.5" width="450" fill="#ffffff" y="-9.6" height="115.199999" fill-opacity="1"/><rect x="-37.5" width="450" fill="#ffffff" y="-9.6" height="115.199999" fill-opacity="1"/><g clip-path="url(#5398a96a69)"><path fill="#548b6d" d="M 92.183594 64.53125 C 92.183594 64.53125 92.082031 64.308594 91.882812 63.890625 C 91.683594 63.472656 91.417969 62.855469 91.097656 62.039062 C 90.222656 59.800781 89.578125 57.492188 89.171875 55.121094 C 88.894531 53.53125 88.726562 51.933594 88.671875 50.320312 C 88.625 48.519531 88.699219 46.722656 88.898438 44.929688 C 88.949219 44.460938 88.992188 43.984375 89.058594 43.511719 C 89.121094 43.039062 89.238281 42.570312 89.332031 42.089844 C 89.421875 41.609375 89.519531 41.136719 89.609375 40.652344 C 89.703125 40.167969 89.878906 39.707031 90.007812 39.230469 C 90.140625 38.757812 90.28125 38.277344 90.417969 37.8125 C 90.550781 37.347656 90.773438 36.871094 90.933594 36.390625 L 91.472656 34.972656 C 91.644531 34.496094 91.898438 34.058594 92.105469 33.597656 L 92.765625 32.230469 C 92.972656 31.769531 93.265625 31.355469 93.507812 30.910156 C 93.996094 30.03125 94.535156 29.183594 95.121094 28.367188 C 95.667969 27.542969 96.261719 26.75 96.898438 25.992188 C 97.503906 25.226562 98.15625 24.496094 98.84375 23.800781 C 100.121094 22.480469 101.488281 21.253906 102.941406 20.128906 L 105.027344 18.628906 C 105.738281 18.179688 106.417969 17.785156 107.078125 17.382812 C 107.710938 17 108.363281 16.65625 109.03125 16.347656 C 109.664062 16.046875 110.253906 15.726562 110.835938 15.488281 C 112.007812 15.042969 113.019531 14.609375 113.878906 14.335938 L 116.609375 13.539062 L 117.320312 16.804688 L 114.800781 17.410156 C 114.003906 17.617188 113.066406 17.96875 111.960938 18.3125 C 111.414062 18.503906 110.863281 18.769531 110.265625 19.023438 C 109.628906 19.273438 109.015625 19.558594 108.414062 19.882812 C 107.789062 20.21875 107.121094 20.554688 106.453125 20.945312 L 104.453125 22.234375 C 103.039062 23.214844 101.703125 24.296875 100.445312 25.472656 C 99.765625 26.085938 99.125 26.734375 98.523438 27.417969 C 97.882812 28.09375 97.28125 28.804688 96.71875 29.550781 C 96.121094 30.289062 95.570312 31.058594 95.0625 31.863281 C 94.804688 32.265625 94.507812 32.648438 94.289062 33.074219 L 93.578125 34.34375 C 93.355469 34.773438 93.089844 35.179688 92.902344 35.625 L 92.339844 36.9375 C 92.152344 37.382812 91.929688 37.8125 91.773438 38.265625 L 91.304688 39.628906 C 91.15625 40.082031 90.984375 40.527344 90.855469 40.984375 C 90.722656 41.4375 90.625 41.898438 90.5 42.347656 C 90.375 42.800781 90.273438 43.257812 90.144531 43.707031 C 90.015625 44.152344 90 44.609375 89.921875 45.058594 C 89.636719 46.796875 89.46875 48.546875 89.417969 50.308594 C 89.398438 51.894531 89.488281 53.472656 89.6875 55.046875 C 89.96875 57.414062 90.484375 59.730469 91.234375 61.992188 C 91.507812 62.8125 91.75 63.445312 91.917969 63.875 Z M 92.183594 64.53125 " fill-opacity="1" fill-rule="nonzero"/></g><g clip-path="url(#ea006e940f)"><path fill="#548b6d" d="M 111.007812 22.351562 L 115.9375 15.390625 L 108.980469 10.460938 L 114.027344 9.601562 L 120.984375 14.53125 L 116.050781 21.488281 Z M 111.007812 22.351562 " fill-opacity="1" fill-rule="nonzero"/></g><g clip-path="url(#50a659a522)"><path fill="#548b6d" d="M 153.492188 70.6875 L 153.070312 71.269531 C 152.792969 71.621094 152.429688 72.210938 151.863281 72.871094 L 150.953125 73.984375 L 149.804688 75.234375 C 148.867188 76.214844 147.875 77.140625 146.832031 78.015625 C 146.273438 78.511719 145.628906 78.953125 145 79.457031 C 144.367188 79.957031 143.648438 80.390625 142.929688 80.875 C 142.207031 81.359375 141.445312 81.792969 140.632812 82.191406 L 139.414062 82.824219 L 138.136719 83.394531 C 137.285156 83.800781 136.359375 84.085938 135.464844 84.457031 C 134.535156 84.726562 133.609375 85.074219 132.625 85.285156 C 130.671875 85.78125 128.691406 86.113281 126.683594 86.28125 L 125.167969 86.367188 L 124.789062 86.390625 L 123.664062 86.390625 C 122.695312 86.410156 121.660156 86.332031 120.648438 86.277344 C 118.691406 86.101562 116.753906 85.78125 114.839844 85.324219 C 113.050781 84.867188 111.300781 84.289062 109.59375 83.589844 C 108.0625 82.945312 106.582031 82.203125 105.152344 81.363281 C 103.933594 80.652344 102.765625 79.875 101.640625 79.027344 C 100.640625 78.269531 99.785156 77.574219 99.125 76.960938 C 98.464844 76.34375 97.945312 75.855469 97.601562 75.515625 L 97.074219 74.988281 L 99.558594 72.742188 L 100.015625 73.242188 C 100.3125 73.570312 100.722656 74.0625 101.335938 74.632812 C 101.945312 75.207031 102.65625 75.902344 103.535156 76.648438 C 104.527344 77.484375 105.566406 78.253906 106.648438 78.964844 C 107.933594 79.8125 109.269531 80.574219 110.65625 81.246094 C 112.210938 81.972656 113.808594 82.585938 115.449219 83.09375 C 117.222656 83.621094 119.027344 84.015625 120.863281 84.28125 C 121.792969 84.375 122.710938 84.507812 123.703125 84.535156 L 124.441406 84.574219 L 126.59375 84.574219 C 128.527344 84.519531 130.441406 84.304688 132.339844 83.929688 C 133.289062 83.78125 134.195312 83.492188 135.105469 83.277344 C 135.996094 82.976562 136.898438 82.753906 137.746094 82.398438 L 139.011719 81.910156 L 140.230469 81.359375 C 141.042969 81.003906 141.785156 80.574219 142.535156 80.195312 C 143.285156 79.8125 143.953125 79.347656 144.632812 78.925781 C 145.3125 78.503906 145.9375 78.0625 146.511719 77.605469 C 147.585938 76.796875 148.613281 75.933594 149.59375 75.011719 L 150.792969 73.839844 L 151.753906 72.773438 C 152.351562 72.148438 152.746094 71.585938 153.046875 71.234375 Z M 153.492188 70.6875 " fill-opacity="1" fill-rule="nonzero"/></g><path fill="#548b6d" d="M 107.472656 75.507812 L 98.988281 74.652344 L 98.140625 83.140625 L 94.898438 79.175781 L 95.75 70.691406 L 104.230469 71.542969 Z M 107.472656 75.507812 " fill-opacity="1" fill-rule="nonzero"/><path fill="#548b6d" d="M 128.175781 14.523438 L 130.878906 14.847656 C 131.089844 14.875 131.320312 14.898438 131.554688 14.933594 L 132.292969 15.09375 L 133.949219 15.449219 C 134.242188 15.515625 134.554688 15.566406 134.867188 15.65625 L 135.808594 15.957031 L 137.855469 16.605469 L 140.007812 17.511719 C 140.363281 17.671875 140.765625 17.804688 141.128906 18.007812 L 142.25 18.609375 C 143.851562 19.449219 145.378906 20.40625 146.835938 21.476562 L 149.082031 23.25 L 151.210938 25.28125 C 151.921875 25.992188 152.535156 26.769531 153.207031 27.519531 C 153.542969 27.894531 153.851562 28.292969 154.136719 28.707031 L 155.03125 29.9375 L 155.480469 30.550781 C 155.621094 30.761719 155.742188 30.984375 155.875 31.199219 L 156.65625 32.5 C 157.175781 33.363281 157.640625 34.253906 158.050781 35.175781 C 158.261719 35.628906 158.488281 36.070312 158.691406 36.527344 C 158.894531 36.980469 159.046875 37.457031 159.207031 37.914062 C 159.574219 38.816406 159.878906 39.734375 160.125 40.675781 C 160.246094 41.140625 160.371094 41.601562 160.476562 42.054688 C 160.613281 42.5 160.71875 42.953125 160.792969 43.414062 C 160.949219 44.328125 161.101562 45.21875 161.246094 46.085938 C 161.363281 46.957031 161.386719 47.816406 161.457031 48.644531 C 161.488281 49.054688 161.519531 49.464844 161.546875 49.867188 C 161.574219 50.265625 161.566406 50.628906 161.546875 51.039062 C 161.535156 53.539062 161.273438 56.015625 160.757812 58.464844 C 160.574219 59.347656 160.402344 60.039062 160.269531 60.511719 C 160.132812 60.980469 160.070312 61.21875 160.070312 61.21875 L 156.875 60.199219 L 157.089844 59.5625 C 157.226562 59.140625 157.425781 58.523438 157.636719 57.722656 C 158.21875 55.503906 158.574219 53.246094 158.703125 50.957031 C 158.722656 50.625 158.738281 50.21875 158.75 49.859375 C 158.761719 49.5 158.75 49.109375 158.722656 48.726562 C 158.699219 47.960938 158.722656 47.15625 158.652344 46.339844 C 158.582031 45.523438 158.460938 44.6875 158.367188 43.832031 C 158.320312 43.398438 158.242188 42.972656 158.136719 42.546875 C 158.046875 42.117188 157.953125 41.683594 157.859375 41.246094 C 157.683594 40.347656 157.445312 39.46875 157.148438 38.605469 L 156.777344 37.292969 C 156.609375 36.855469 156.421875 36.425781 156.238281 35.988281 C 155.902344 35.09375 155.511719 34.230469 155.0625 33.386719 L 154.390625 32.109375 C 154.273438 31.902344 154.167969 31.679688 154.035156 31.472656 L 153.644531 30.875 L 152.851562 29.660156 C 152.601562 29.246094 152.324219 28.851562 152.019531 28.472656 C 151.417969 27.726562 150.847656 26.945312 150.222656 26.226562 L 148.265625 24.15625 L 146.1875 22.316406 C 144.828125 21.199219 143.386719 20.191406 141.875 19.289062 L 140.808594 18.644531 C 140.453125 18.425781 140.097656 18.289062 139.742188 18.097656 L 137.667969 17.097656 L 135.683594 16.347656 L 134.761719 15.992188 C 134.460938 15.886719 134.160156 15.820312 133.871094 15.738281 L 132.253906 15.296875 L 131.542969 15.097656 C 131.308594 15.050781 131.085938 15.015625 130.871094 14.976562 Z M 128.175781 14.523438 " fill-opacity="1" fill-rule="nonzero"/><g clip-path="url(#b9f26d4fbd)"><path fill="#548b6d" d="M 155.300781 51.976562 L 158.839844 59.738281 L 166.601562 56.195312 L 164.808594 60.992188 L 157.050781 64.53125 L 153.511719 56.773438 Z M 155.300781 51.976562 " fill-opacity="1" fill-rule="nonzero"/></g><g fill="#172735" fill-opacity="1"><g transform="translate(101.177523, 61.798474)"><g><path d="M 7.898438 0 C 8.394531 0 8.640625 -0.246094 8.640625 -0.761719 L 8.640625 -9.785156 L 14.429688 -9.785156 L 18.957031 -0.667969 C 19.207031 -0.152344 19.414062 0 19.851562 0 L 24.761719 0 C 25.125 0 25.316406 -0.246094 25.316406 -0.550781 C 25.316406 -0.648438 25.296875 -0.722656 25.257812 -0.820312 L 20.0625 -11.097656 C 22.839844 -12.734375 24.878906 -15.683594 24.878906 -18.976562 C 24.878906 -23.945312 20.976562 -28.246094 15.914062 -28.246094 L 3.824219 -28.246094 C 3.351562 -28.246094 3.082031 -27.941406 3.082031 -27.503906 L 3.082031 -0.761719 C 3.082031 -0.246094 3.332031 0 3.824219 0 Z M 8.640625 -14.828125 L 8.640625 -23.335938 L 14.582031 -23.335938 C 17.054688 -23.335938 19.1875 -21.640625 19.1875 -19.070312 C 19.1875 -16.484375 17.054688 -14.828125 14.582031 -14.828125 Z M 8.640625 -14.828125 "/></g></g></g><g fill="#172735" fill-opacity="1"><g transform="translate(126.07202, 61.798474)"><g><path d="M 16.464844 0 C 17.015625 0 17.359375 -0.363281 17.359375 -0.875 L 17.359375 -3.578125 C 17.359375 -4.167969 16.996094 -4.53125 16.464844 -4.53125 L 8.148438 -4.53125 L 8.148438 -7.289062 L 14.390625 -7.289062 C 14.921875 -7.289062 15.265625 -7.652344 15.265625 -8.183594 L 15.265625 -10.488281 C 15.265625 -11.078125 14.921875 -11.421875 14.390625 -11.421875 L 8.148438 -11.421875 L 8.148438 -14.257812 L 16.046875 -14.257812 C 16.578125 -14.257812 16.941406 -14.582031 16.941406 -15.171875 L 16.941406 -17.777344 C 16.941406 -18.3125 16.578125 -18.671875 16.046875 -18.671875 L 3.902344 -18.671875 C 3.3125 -18.671875 3.027344 -18.367188 3.027344 -17.777344 L 3.027344 -0.875 C 3.027344 -0.34375 3.292969 -0.0195312 3.769531 0 Z M 16.464844 0 "/></g></g></g><g fill="#172735" fill-opacity="1"><g transform="translate(144.271275, 61.798474)"><g/></g></g><g fill="#172735" fill-opacity="1"><g transform="translate(155.538449, 61.798474)"><g/></g></g><g fill="#172735" fill-opacity="1"><g transform="translate(166.808857, 61.798474)"><g><path d="M 15.875 0.0195312 C 16.3125 0.0195312 16.636719 -0.210938 16.84375 -0.683594 L 27.351562 -27.410156 C 27.410156 -27.523438 27.429688 -27.636719 27.429688 -27.769531 C 27.429688 -28.09375 27.199219 -28.265625 26.839844 -28.265625 L 22.441406 -28.265625 C 21.984375 -28.265625 21.679688 -28.019531 21.507812 -27.523438 L 14.257812 -7.804688 L 6.964844 -27.542969 C 6.796875 -28.019531 6.472656 -28.265625 6.035156 -28.265625 L 1.695312 -28.265625 C 1.3125 -28.265625 1.105469 -28.113281 1.105469 -27.808594 C 1.105469 -27.675781 1.121094 -27.5625 1.179688 -27.449219 L 11.707031 -0.683594 C 11.878906 -0.210938 12.199219 0.0195312 12.675781 0.0195312 Z M 15.875 0.0195312 "/></g></g></g><g fill="#172735" fill-opacity="1"><g transform="translate(193.492418, 61.798474)"><g><path d="M 16.464844 0 C 17.015625 0 17.359375 -0.363281 17.359375 -0.875 L 17.359375 -3.578125 C 17.359375 -4.167969 16.996094 -4.53125 16.464844 -4.53125 L 8.148438 -4.53125 L 8.148438 -7.289062 L 14.390625 -7.289062 C 14.921875 -7.289062 15.265625 -7.652344 15.265625 -8.183594 L 15.265625 -10.488281 C 15.265625 -11.078125 14.921875 -11.421875 14.390625 -11.421875 L 8.148438 -11.421875 L 8.148438 -14.257812 L 16.046875 -14.257812 C 16.578125 -14.257812 16.941406 -14.582031 16.941406 -15.171875 L 16.941406 -17.777344 C 16.941406 -18.3125 16.578125 -18.671875 16.046875 -18.671875 L 3.902344 -18.671875 C 3.3125 -18.671875 3.027344 -18.367188 3.027344 -17.777344 L 3.027344 -0.875 C 3.027344 -0.34375 3.292969 -0.0195312 3.769531 0 Z M 16.464844 0 "/></g></g></g><g fill="#172735" fill-opacity="1"><g transform="translate(211.687452, 61.798474)"><g><path d="M 7.328125 0 C 7.9375 0 8.242188 -0.285156 8.242188 -0.875 L 8.242188 -10.792969 L 15.796875 -0.4375 C 16.027344 -0.152344 16.273438 0 16.523438 0 L 20.632812 0 C 21.261719 0 21.585938 -0.285156 21.585938 -0.875 L 21.585938 -17.777344 C 21.585938 -18.3125 21.109375 -18.671875 20.632812 -18.671875 L 17.246094 -18.671875 C 16.75 -18.671875 16.464844 -18.425781 16.386719 -17.910156 L 16.386719 -8.109375 L 9.023438 -18.234375 C 8.8125 -18.519531 8.527344 -18.671875 8.183594 -18.671875 L 3.921875 -18.671875 C 3.386719 -18.671875 3.046875 -18.273438 3.046875 -17.738281 L 3.046875 -0.875 C 3.046875 -0.285156 3.332031 0 3.921875 0 Z M 7.328125 0 "/></g></g></g><g fill="#172735" fill-opacity="1"><g transform="translate(235.478061, 61.798474)"><g><path d="M 11.019531 0 C 16.179688 0 19.871094 -4.398438 19.871094 -9.382812 C 19.871094 -14.523438 16.101562 -18.597656 10.90625 -18.710938 L 3.902344 -18.710938 C 3.3125 -18.710938 3.007812 -18.40625 3.007812 -17.816406 L 3.007812 -0.875 C 3.007812 -0.34375 3.253906 -0.0195312 3.769531 0 Z M 8.183594 -4.414062 L 8.183594 -14.371094 L 10.070312 -14.371094 C 12.90625 -14.371094 14.847656 -12.238281 14.847656 -9.441406 C 14.847656 -6.644531 13.132812 -4.414062 10.203125 -4.414062 Z M 8.183594 -4.414062 "/></g></g></g><g fill="#172735" fill-opacity="1"><g transform="translate(254.967305, 61.798474)"><g><path d="M 16.464844 0 C 17.015625 0 17.359375 -0.363281 17.359375 -0.875 L 17.359375 -3.578125 C 17.359375 -4.167969 16.996094 -4.53125 16.464844 -4.53125 L 8.148438 -4.53125 L 8.148438 -7.289062 L 14.390625 -7.289062 C 14.921875 -7.289062 15.265625 -7.652344 15.265625 -8.183594 L 15.265625 -10.488281 C 15.265625 -11.078125 14.921875 -11.421875 14.390625 -11.421875 L 8.148438 -11.421875 L 8.148438 -14.257812 L 16.046875 -14.257812 C 16.578125 -14.257812 16.941406 -14.582031 16.941406 -15.171875 L 16.941406 -17.777344 C 16.941406 -18.3125 16.578125 -18.671875 16.046875 -18.671875 L 3.902344 -18.671875 C 3.3125 -18.671875 3.027344 -18.367188 3.027344 -17.777344 L 3.027344 -0.875 C 3.027344 -0.34375 3.292969 -0.0195312 3.769531 0 Z M 16.464844 0 "/></g></g></g></svg>